<?xml version="1.0" encoding="UTF-8" standalone="no"?>
<svg
   viewBox="0 0 44 35"
   version="1.1"
   id="svg1"
   sodipodi:docname="computer.svg"
   width="44"
   height="35"
   inkscape:version="1.3.2 (091e20e, 2023-11-25, custom)"
   xmlns:inkscape="http://www.inkscape.org/namespaces/inkscape"
   xmlns:sodipodi="http://sodipodi.sourceforge.net/DTD/sodipodi-0.dtd"
   xmlns="http://www.w3.org/2000/svg"
   xmlns:svg="http://www.w3.org/2000/svg">
  <defs
     id="defs1" />
  <sodipodi:namedview
     id="namedview1"
     pagecolor="#ffffff"
     bordercolor="#666666"
     borderopacity="1.0"
     inkscape:showpageshadow="2"
     inkscape:pageopacity="0.0"
     inkscape:pagecheckerboard="0"
     inkscape:deskcolor="#d1d1d1"
     inkscape:zoom="9.0708542"
     inkscape:cx="48.672373"
     inkscape:cy="37.648053"
     inkscape:window-width="1920"
     inkscape:window-height="1017"
     inkscape:window-x="-8"
     inkscape:window-y="-8"
     inkscape:window-maximized="1"
     inkscape:current-layer="svg1" />
  <!--!Font Awesome Free 6.7.1 by @fontawesome - https://fontawesome.com License - https://fontawesome.com/license/free Copyright 2024 Fonticons, Inc.-->
  <path
     d="m 21.798934,0 c 1.205753,0 2.179894,0.97413988 2.179894,2.1798934 v 4.3597867 h 8.174598 c 2.711245,0 4.904762,2.1935181 4.904762,4.9047599 v 18.529095 c 0,2.711241 -2.193517,4.904759 -4.904762,4.904759 H 11.44444 c -2.7112418,0 -4.9047599,-2.193518 -4.9047599,-4.904759 V 11.44444 c 0,-2.7112418 2.1935181,-4.9047599 4.9047599,-4.9047599 h 8.174601 V 2.1798934 C 19.619041,0.97413988 20.593182,0 21.798934,0 Z m -7.629627,26.158721 c -0.59947,0 -1.089948,0.490476 -1.089948,1.089945 0,0.599472 0.490478,1.089949 1.089948,1.089949 h 2.179894 c 0.599469,0 1.089947,-0.490477 1.089947,-1.089949 0,-0.599469 -0.490478,-1.089945 -1.089947,-1.089945 z m 6.53968,0 c -0.599469,0 -1.089946,0.490476 -1.089946,1.089945 0,0.599472 0.490477,1.089949 1.089946,1.089949 h 2.179894 c 0.599471,0 1.089947,-0.490477 1.089947,-1.089949 0,-0.599469 -0.490476,-1.089945 -1.089947,-1.089945 z m 6.539679,0 c -0.599469,0 -1.089945,0.490476 -1.089945,1.089945 0,0.599472 0.490476,1.089949 1.089945,1.089949 h 2.179896 c 0.599471,0 1.089946,-0.490477 1.089946,-1.089949 0,-0.599469 -0.490475,-1.089945 -1.089946,-1.089945 z M 17.98412,17.439148 a 2.724867,2.724867 0 1 0 -5.449732,0 2.724867,2.724867 0 1 0 5.449732,0 z m 10.354495,2.724866 a 2.7248669,2.7248669 0 1 0 0,-5.449733 2.7248669,2.7248669 0 1 0 0,5.449733 z M 3.2698402,15.259254 H 4.3597868 V 28.338615 H 3.2698402 C 1.464616,28.338615 0,26.873999 0,25.068774 v -6.539681 c 0,-1.805224 1.464616,-3.269839 3.2698402,-3.269839 z m 37.0581868,0 c 1.805225,0 3.269841,1.464615 3.269841,3.269839 v 6.539681 c 0,1.805225 -1.464616,3.269841 -3.269841,3.269841 H 39.238081 V 15.259254 Z"
     id="path1"
     style="stroke-width:0.0681215" />
</svg>
