<?xml version="1.0" encoding="UTF-8" standalone="no"?>
<svg
   viewBox="0 0 39 41"
   version="1.1"
   id="svg1"
   sodipodi:docname="gear.svg"
   width="39"
   height="41"
   inkscape:version="1.3.2 (091e20e, 2023-11-25, custom)"
   xmlns:inkscape="http://www.inkscape.org/namespaces/inkscape"
   xmlns:sodipodi="http://sodipodi.sourceforge.net/DTD/sodipodi-0.dtd"
   xmlns="http://www.w3.org/2000/svg"
   xmlns:svg="http://www.w3.org/2000/svg">
  <defs
     id="defs1" />
  <sodipodi:namedview
     id="namedview1"
     pagecolor="#ffffff"
     bordercolor="#666666"
     borderopacity="1.0"
     inkscape:showpageshadow="2"
     inkscape:pageopacity="0.0"
     inkscape:pagecheckerboard="0"
     inkscape:deskcolor="#d1d1d1"
     inkscape:zoom="12.828125"
     inkscape:cx="18.669915"
     inkscape:cy="18.591961"
     inkscape:window-width="1920"
     inkscape:window-height="1017"
     inkscape:window-x="-8"
     inkscape:window-y="-8"
     inkscape:window-maximized="1"
     inkscape:current-layer="svg1" />
  <!--!Font Awesome Free 6.7.2 by @fontawesome - https://fontawesome.com License - https://fontawesome.com/license/free Copyright 2025 Fonticons, Inc.-->
  <path
     d="m 38.564357,13.603049 c 0.253795,0.690008 0.03965,1.459329 -0.507592,1.95106 l -3.434186,3.12487 c 0.08724,0.658284 0.13483,1.332431 0.13483,2.014509 0,0.682077 -0.04758,1.356225 -0.13483,2.014509 l 3.434186,3.12487 c 0.547247,0.49173 0.761387,1.26105 0.507592,1.95106 -0.348972,0.943807 -0.769321,1.847958 -1.253123,2.720384 l -0.372762,0.642422 c -0.523456,0.872423 -1.11036,1.697263 -1.752781,2.474516 -0.467938,0.571041 -1.245188,0.761388 -1.943132,0.539317 l -4.417644,-1.403811 c -1.062772,0.816907 -2.236583,1.498985 -3.489702,2.014509 l -0.991393,4.528682 c -0.158623,0.721732 -0.713802,1.292775 -1.443467,1.41174 -1.094497,0.182418 -2.220719,0.277591 -3.370735,0.277591 -1.150015,0 -2.276238,-0.09518 -3.370734,-0.277591 -0.729665,-0.118965 -1.284845,-0.690008 -1.443468,-1.41174 L 13.724023,34.771264 C 12.470903,34.25574 11.297094,33.573662 10.234321,32.756755 L 5.8246075,34.168498 C 5.1266672,34.390569 4.3494156,34.192279 3.8814783,33.629179 3.239056,32.851928 2.6521515,32.027088 2.1286962,31.154665 L 1.7559326,30.51224 C 1.2721329,29.639817 0.8517826,28.735666 0.50281231,27.791859 0.24901589,27.10185 0.46315662,26.332529 1.0104053,25.840798 l 3.434184,-3.12487 c -0.087243,-0.666215 -0.1348294,-1.340363 -0.1348294,-2.02244 0,-0.682078 0.047588,-1.356225 0.1348294,-2.014509 l -3.434184,-3.12487 C 0.46315662,15.062378 0.24901589,14.293057 0.50281231,13.603049 0.8517826,12.659242 1.2721329,11.755092 1.7559326,10.882667 L 2.1286962,10.240245 C 2.6521515,9.3678189 3.239056,8.5429807 3.8814783,7.765729 4.3494156,7.1946873 5.1266672,7.0043397 5.8246075,7.2264116 l 4.4176455,1.4038118 c 1.062773,-0.8169076 2.236581,-1.4989855 3.489702,-2.0145095 l 0.991392,-4.5286814 c 0.158622,-0.7217337 0.713803,-1.29277582 1.443467,-1.41174297 1.094497,-0.19034726 2.22072,-0.285521 3.370734,-0.285521 1.150017,0 2.276238,0.0951738 3.370735,0.27758984 0.729665,0.11896715 1.284846,0.69000933 1.443467,1.41174303 l 0.991396,4.528681 c 1.253119,0.5155239 2.426926,1.1976025 3.489699,2.0145101 L 33.250491,7.21848 c 0.69794,-0.2220717 1.475194,-0.023791 1.943133,0.539318 0.642421,0.7772517 1.229324,1.6020906 1.75278,2.474516 l 0.372762,0.642422 c 0.483802,0.872426 0.90415,1.776575 1.25312,2.720381 z M 19.537548,27.0384 a 6.3449123,6.3449123 0 1 0 0,-12.689824 6.3449123,6.3449123 0 1 0 0,12.689824 z"
     id="path1"
     style="stroke-width:0.0793112" />
</svg>
