<?xml version="1.0" encoding="UTF-8" standalone="no"?>
<svg
   viewBox="0 0 43 38"
   version="1.1"
   id="svg1"
   sodipodi:docname="local.svg"
   width="43"
   height="38"
   inkscape:version="1.3.2 (091e20e, 2023-11-25, custom)"
   xmlns:inkscape="http://www.inkscape.org/namespaces/inkscape"
   xmlns:sodipodi="http://sodipodi.sourceforge.net/DTD/sodipodi-0.dtd"
   xmlns="http://www.w3.org/2000/svg"
   xmlns:svg="http://www.w3.org/2000/svg">
  <defs
     id="defs1" />
  <sodipodi:namedview
     id="namedview1"
     pagecolor="#ffffff"
     bordercolor="#666666"
     borderopacity="1.0"
     inkscape:showpageshadow="2"
     inkscape:pageopacity="0.0"
     inkscape:pagecheckerboard="0"
     inkscape:deskcolor="#d1d1d1"
     inkscape:zoom="9.0708542"
     inkscape:cx="38.860728"
     inkscape:cy="35.553432"
     inkscape:window-width="1920"
     inkscape:window-height="1017"
     inkscape:window-x="-8"
     inkscape:window-y="-8"
     inkscape:window-maximized="1"
     inkscape:current-layer="svg1" />
  <!--!Font Awesome Free 6.7.1 by @fontawesome - https://fontawesome.com License - https://fontawesome.com/license/free Copyright 2024 Fonticons, Inc.-->
  <path
     d="M 4.7467855,0 C 2.1286366,0 0,2.1286366 0,4.7467855 V 26.107319 c 0,2.61815 2.1286366,4.746786 4.7467855,4.746786 H 17.800445 l -0.793603,2.373394 h -5.139879 c -1.312782,0 -2.3733922,1.060607 -2.3733922,2.373392 0,1.312782 1.0606102,2.373393 2.3733922,2.373393 h 18.987142 c 1.312783,0 2.373394,-1.060611 2.373394,-2.373393 0,-1.312785 -1.060611,-2.373392 -2.373394,-2.373392 h -5.139879 l -0.793602,-2.373394 h 13.05366 c 2.618149,0 4.746786,-2.128636 4.746786,-4.746786 V 4.7467855 C 42.72107,2.1286366 40.592433,0 37.974284,0 Z M 37.974284,4.7467855 V 21.360534 H 4.7467855 V 4.7467855 Z"
     id="path1"
     style="stroke-width:0.0741685" />
</svg>
