<?xml version="1.0" encoding="UTF-8" standalone="no"?>
<svg
   viewBox="0 0 37 30"
   version="1.1"
   id="svg1"
   sodipodi:docname="newUser.svg"
   width="37"
   height="30"
   inkscape:version="1.3.2 (091e20e, 2023-11-25, custom)"
   xmlns:inkscape="http://www.inkscape.org/namespaces/inkscape"
   xmlns:sodipodi="http://sodipodi.sourceforge.net/DTD/sodipodi-0.dtd"
   xmlns="http://www.w3.org/2000/svg"
   xmlns:svg="http://www.w3.org/2000/svg">
  <defs
     id="defs1" />
  <sodipodi:namedview
     id="namedview1"
     pagecolor="#ffffff"
     bordercolor="#666666"
     borderopacity="1.0"
     inkscape:showpageshadow="2"
     inkscape:pageopacity="0.0"
     inkscape:pagecheckerboard="0"
     inkscape:deskcolor="#d1d1d1"
     inkscape:zoom="18.141708"
     inkscape:cx="22.406931"
     inkscape:cy="21.800593"
     inkscape:window-width="1920"
     inkscape:window-height="1017"
     inkscape:window-x="-8"
     inkscape:window-y="-8"
     inkscape:window-maximized="1"
     inkscape:current-layer="svg1" />
  <!--!Font Awesome Free 6.6.0 by @fontawesome - https://fontawesome.com License - https://fontawesome.com/license/free Copyright 2024 Fonticons, Inc.-->
  <path
     d="m 5.6317647,7.5141682 a 7.3620284,7.3620284 0 1 1 14.7240563,0 7.3620284,7.3620284 0 1 1 -14.7240563,0 z M 0.1102432,27.892032 c 0,-5.665308 4.5897646,-10.255075 10.2550748,-10.255075 h 5.25695 c 5.66531,0 10.255074,4.589767 10.255074,10.255075 0,0.943264 -0.764961,1.708222 -1.708222,1.708222 H 1.8184639 c -0.94325991,0 -1.7082207,-0.764958 -1.7082207,-1.708222 z M 29.09823,18.097085 v -3.681013 h -3.681015 c -0.764961,0 -1.380379,-0.615421 -1.380379,-1.380381 0,-0.764961 0.615418,-1.380382 1.380379,-1.380382 H 29.09823 V 7.9742951 c 0,-0.7649604 0.61542,-1.3803799 1.38038,-1.3803799 0.764961,0 1.380381,0.6154195 1.380381,1.3803799 v 3.6810139 h 3.681013 c 0.764961,0 1.380383,0.615421 1.380383,1.380382 0,0.76496 -0.615422,1.380381 -1.380383,1.380381 h -3.681013 v 3.681013 c 0,0.76496 -0.61542,1.38038 -1.380381,1.38038 -0.76496,0 -1.38038,-0.61542 -1.38038,-1.38038 z"
     id="path1"
     style="stroke-width:0.0575157" />
</svg>
